<svg xmlns="http://www.w3.org/2000/svg" viewBox="0 0 509 191"><defs><style>.cls-1{fill:none;stroke:#000;stroke-miterlimit:10;stroke-width:0.5px;}</style></defs><title>Asset 1</title><g id="Layer_2" data-name="Layer 2"><g id="Layer_1-2" data-name="Layer 1"><path d="M134,76v39H1V76H134m1-1H0v41H135V75Z"/><path d="M9.58,84.42h1v5.41c0,2.15-1.06,2.81-2.45,2.81a3.38,3.38,0,0,1-1.12-.19l.16-.85a2.49,2.49,0,0,0,.88.16c.94,0,1.49-.42,1.49-2Z"/><path d="M15.55,92.5l-.08-.73h0a2.16,2.16,0,0,1-1.77.86A1.65,1.65,0,0,1,11.88,91c0-1.4,1.25-2.17,3.49-2.16v-.12A1.2,1.2,0,0,0,14,87.35a2.89,2.89,0,0,0-1.51.43l-.24-.7a3.6,3.6,0,0,1,1.91-.52c1.77,0,2.21,1.21,2.21,2.37v2.17a8.14,8.14,0,0,0,.1,1.39Zm-.16-3c-1.15,0-2.46.18-2.46,1.31a.93.93,0,0,0,1,1,1.44,1.44,0,0,0,1.4-1,1.11,1.11,0,0,0,.06-.34Z"/><path d="M18.43,86.7,19.57,90A15,15,0,0,1,20,91.45h0c.13-.48.3-1,.49-1.49l1.13-3.26h1.1l-2.28,5.8h-1L17.3,86.7Z"/><path d="M27,92.5l-.08-.73h0a2.16,2.16,0,0,1-1.77.86A1.65,1.65,0,0,1,23.29,91c0-1.4,1.25-2.17,3.49-2.16v-.12a1.2,1.2,0,0,0-1.32-1.34,2.89,2.89,0,0,0-1.51.43l-.24-.7a3.6,3.6,0,0,1,1.91-.52c1.77,0,2.21,1.21,2.21,2.37v2.17a8.14,8.14,0,0,0,.1,1.39Zm-.16-3c-1.15,0-2.46.18-2.46,1.31a.93.93,0,0,0,1,1,1.44,1.44,0,0,0,1.4-1,1.11,1.11,0,0,0,.06-.34Z"/><path d="M29.39,91.42a2.77,2.77,0,0,0,1.39.42c.77,0,1.13-.38,1.13-.86s-.3-.78-1.08-1.07c-1-.37-1.54-.95-1.54-1.64a1.79,1.79,0,0,1,2-1.7,2.9,2.9,0,0,1,1.43.36l-.26.77a2.26,2.26,0,0,0-1.19-.34c-.62,0-1,.36-1,.79s.35.7,1.1,1c1,.38,1.52.89,1.52,1.75,0,1-.79,1.74-2.17,1.74a3.31,3.31,0,0,1-1.63-.4Z"/><path d="M38.42,92.29a3.88,3.88,0,0,1-1.67.34,2.76,2.76,0,0,1-2.89-3A3,3,0,0,1,37,86.58a3.52,3.52,0,0,1,1.46.3l-.24.82A2.45,2.45,0,0,0,37,87.42a2.19,2.19,0,0,0,0,4.37,3,3,0,0,0,1.3-.29Z"/><path d="M39.66,88.51c0-.68,0-1.27,0-1.81h.92l0,1.14h0a1.74,1.74,0,0,1,1.61-1.27,1.15,1.15,0,0,1,.3,0v1a1.59,1.59,0,0,0-.36,0,1.48,1.48,0,0,0-1.42,1.36,3,3,0,0,0,0,.49V92.5h-1Z"/><path d="M44.8,85.07a.65.65,0,0,1-1.31,0,.64.64,0,0,1,.66-.66A.63.63,0,0,1,44.8,85.07ZM43.63,92.5V86.7h1.06v5.8Z"/><path d="M46.44,88.59c0-.74,0-1.34,0-1.9h.95l0,1h0a2.28,2.28,0,0,1,2.06-1.13c1.4,0,2.46,1.19,2.46,3,0,2.09-1.27,3.12-2.64,3.12a2,2,0,0,1-1.79-.91h0v3.15h-1Zm1,1.55a2.38,2.38,0,0,0,0,.43,1.63,1.63,0,0,0,1.58,1.24c1.12,0,1.76-.91,1.76-2.24,0-1.16-.61-2.16-1.73-2.16a1.68,1.68,0,0,0-1.6,1.31,1.73,1.73,0,0,0-.07.43Z"/><path d="M54.54,85V86.7H56v.8H54.54v3.13c0,.72.2,1.13.79,1.13a2.36,2.36,0,0,0,.61-.07l0,.79a2.58,2.58,0,0,1-.94.14,1.46,1.46,0,0,1-1.14-.44,2.15,2.15,0,0,1-.41-1.51V87.5h-.9v-.8h.9V85.31Z"/><path d="M59.67,91.23a3.7,3.7,0,0,0,1.87.53c1.07,0,1.69-.56,1.69-1.38s-.43-1.19-1.52-1.61c-1.32-.47-2.14-1.15-2.14-2.29a2.33,2.33,0,0,1,2.61-2.19,3.68,3.68,0,0,1,1.79.4l-.29.85a3.22,3.22,0,0,0-1.54-.38c-1.1,0-1.52.66-1.52,1.21,0,.76.49,1.13,1.61,1.56,1.37.53,2.06,1.19,2.06,2.37s-.92,2.33-2.83,2.33a4.17,4.17,0,0,1-2.06-.52Z"/><path d="M65.73,84.52a12.09,12.09,0,0,1,2-.16A3.32,3.32,0,0,1,70,85a2.17,2.17,0,0,1,.71,1.69,2.38,2.38,0,0,1-.62,1.73,3.35,3.35,0,0,1-2.47.89,3.58,3.58,0,0,1-.84-.07V92.5h-1Zm1,3.9a3.49,3.49,0,0,0,.86.08c1.26,0,2-.61,2-1.73s-.76-1.58-1.91-1.58a4.38,4.38,0,0,0-1,.08Z"/><path d="M72.42,90l-.84,2.54H70.5l2.75-8.08H74.5l2.76,8.08H76.15L75.28,90Zm2.65-.82-.79-2.33c-.18-.53-.3-1-.42-1.48h0c-.12.48-.25,1-.41,1.46l-.79,2.34Z"/><path d="M7.89,102.91c0-.68,0-1.27,0-1.81h.92l0,1.14h0A1.74,1.74,0,0,1,10.46,101a1.15,1.15,0,0,1,.3,0v1a1.59,1.59,0,0,0-.36,0A1.48,1.48,0,0,0,9,103.32a3,3,0,0,0,0,.49v3.09h-1Z"/><path d="M16.68,105.32c0,.6,0,1.13,0,1.58h-.94l-.06-.95h0A2.18,2.18,0,0,1,13.78,107c-.91,0-2-.5-2-2.54V101.1h1.06v3.21c0,1.1.34,1.85,1.3,1.85a1.48,1.48,0,0,0,1.49-1.5V101.1h1.06Z"/><path d="M18.43,102.67c0-.6,0-1.09,0-1.57h.94l.06,1h0A2.13,2.13,0,0,1,21.32,101c.8,0,2.05.48,2.05,2.47v3.47H22.32v-3.35c0-.94-.35-1.71-1.34-1.71a1.5,1.5,0,0,0-1.42,1.08,1.52,1.52,0,0,0-.07.49v3.49H18.43Z"/><path d="M25.09,102.67c0-.6,0-1.09,0-1.57H26l.06,1h0A2.13,2.13,0,0,1,28,101c.8,0,2.05.48,2.05,2.47v3.47H29v-3.35c0-.94-.35-1.71-1.34-1.71a1.5,1.5,0,0,0-1.42,1.08,1.52,1.52,0,0,0-.07.49v3.49H25.09Z"/><path d="M32.92,99.47a.65.65,0,0,1-1.31,0,.64.64,0,0,1,.66-.66A.63.63,0,0,1,32.92,99.47Zm-1.18,7.44v-5.8h1.06v5.8Z"/><path d="M34.56,102.67c0-.6,0-1.09,0-1.57h.94l.06,1h0A2.13,2.13,0,0,1,37.45,101c.8,0,2.05.48,2.05,2.47v3.47H38.44v-3.35c0-.94-.35-1.71-1.34-1.71a1.5,1.5,0,0,0-1.42,1.08,1.52,1.52,0,0,0-.07.49v3.49H34.56Z"/><path d="M46.22,101.1c0,.42,0,.89,0,1.6v3.37a3.34,3.34,0,0,1-.83,2.65,3.08,3.08,0,0,1-2.11.7,3.75,3.75,0,0,1-1.93-.48l.26-.8a3.27,3.27,0,0,0,1.7.46c1.08,0,1.87-.56,1.87-2v-.65h0a2.07,2.07,0,0,1-1.85,1A2.6,2.6,0,0,1,40.8,104,2.79,2.79,0,0,1,43.41,101a1.93,1.93,0,0,1,1.81,1h0l0-.88Zm-1.09,2.29a1.5,1.5,0,0,0-.06-.48,1.52,1.52,0,0,0-1.48-1.12c-1,0-1.73.85-1.73,2.19,0,1.14.58,2.09,1.72,2.09A1.54,1.54,0,0,0,45,105a1.85,1.85,0,0,0,.08-.56Z"/><path d="M51.64,99.47a.65.65,0,0,1-1.31,0,.64.64,0,0,1,.66-.66A.63.63,0,0,1,51.64,99.47Zm-1.18,7.44v-5.8h1.06v5.8Z"/><path d="M53.28,102.67c0-.6,0-1.09,0-1.57h.94l.06,1h0A2.13,2.13,0,0,1,56.17,101c.8,0,2.05.48,2.05,2.47v3.47H57.16v-3.35c0-.94-.35-1.71-1.34-1.71a1.5,1.5,0,0,0-1.42,1.08,1.52,1.52,0,0,0-.07.49v3.49H53.28Z"/><path d="M65.7,106.9l-.08-.73h0a2.16,2.16,0,0,1-1.77.86A1.65,1.65,0,0,1,62,105.37c0-1.4,1.25-2.17,3.49-2.16v-.12a1.2,1.2,0,0,0-1.32-1.34,2.89,2.89,0,0,0-1.51.43l-.24-.7a3.6,3.6,0,0,1,1.91-.52c1.77,0,2.21,1.21,2.21,2.37v2.17a8.14,8.14,0,0,0,.1,1.39Zm-.16-3c-1.15,0-2.46.18-2.46,1.31a.93.93,0,0,0,1,1,1.44,1.44,0,0,0,1.4-1,1.11,1.11,0,0,0,.06-.34Z"/><path d="M70.85,98.93a10.09,10.09,0,0,1,1.91-.17,3.34,3.34,0,0,1,2.22.59,1.69,1.69,0,0,1,.67,1.43,1.92,1.92,0,0,1-1.37,1.77v0a2.08,2.08,0,0,1,1.67,2,2.18,2.18,0,0,1-.68,1.62,4.06,4.06,0,0,1-2.79.76,12.23,12.23,0,0,1-1.62-.1Zm1,3.31h.95c1.1,0,1.75-.58,1.75-1.35,0-.95-.72-1.32-1.77-1.32a4.47,4.47,0,0,0-.92.07Zm0,3.87a5.55,5.55,0,0,0,.88,0c1.08,0,2.07-.4,2.07-1.57S73.89,103,72.75,103h-.86Z"/><path d="M77.31,102.91c0-.68,0-1.27,0-1.81h.92l0,1.14h0A1.74,1.74,0,0,1,79.88,101a1.15,1.15,0,0,1,.3,0v1a1.59,1.59,0,0,0-.36,0,1.48,1.48,0,0,0-1.42,1.36,3,3,0,0,0,0,.49v3.09h-1Z"/><path d="M86.37,104A2.84,2.84,0,0,1,83.48,107a2.76,2.76,0,0,1-2.78-3A2.83,2.83,0,0,1,83.58,101,2.75,2.75,0,0,1,86.37,104Zm-4.61.06c0,1.27.73,2.23,1.76,2.23s1.76-.95,1.76-2.25c0-1-.49-2.23-1.74-2.23S81.76,102.91,81.76,104Z"/><path d="M88,101.1l.77,3c.17.65.32,1.25.43,1.85h0c.13-.59.32-1.21.52-1.83l.95-3h.89l.9,2.9c.22.7.38,1.31.52,1.9h0a17.42,17.42,0,0,1,.44-1.88l.83-2.91h1l-1.87,5.8h-1l-.89-2.77a19.44,19.44,0,0,1-.52-1.91h0a17.2,17.2,0,0,1-.53,1.92l-.94,2.76h-1L87,101.1Z"/><path d="M96.24,105.82a2.77,2.77,0,0,0,1.39.42c.77,0,1.13-.38,1.13-.86s-.3-.78-1.08-1.07c-1-.37-1.54-.95-1.54-1.64a1.79,1.79,0,0,1,2-1.7,2.9,2.9,0,0,1,1.43.36l-.26.77a2.26,2.26,0,0,0-1.19-.34c-.62,0-1,.36-1,.79s.35.7,1.1,1c1,.38,1.52.89,1.52,1.75,0,1-.79,1.74-2.17,1.74a3.31,3.31,0,0,1-1.63-.4Z"/><path d="M101.72,104.19a1.86,1.86,0,0,0,2,2,3.81,3.81,0,0,0,1.61-.3l.18.76a4.7,4.7,0,0,1-1.93.36,2.7,2.7,0,0,1-2.85-2.93c0-1.75,1-3.13,2.72-3.13a2.46,2.46,0,0,1,2.4,2.73,4,4,0,0,1,0,.49Zm3.09-.76a1.5,1.5,0,0,0-1.46-1.71,1.75,1.75,0,0,0-1.62,1.71Z"/><path d="M107.14,102.91c0-.68,0-1.27,0-1.81H108l0,1.14h0a1.74,1.74,0,0,1,1.61-1.27,1.14,1.14,0,0,1,.3,0v1a1.59,1.59,0,0,0-.36,0,1.48,1.48,0,0,0-1.42,1.36,3,3,0,0,0,0,.49v3.09h-1Z"/><path d="M323,76v39H190V76H323m1-1H189v41H324V75Z"/><path d="M196.93,99.5V91.42h1.14l2.59,4.09a22.86,22.86,0,0,1,1.45,2.63h0C202,97,202,96.06,202,94.8V91.42h1V99.5h-1.06l-2.57-4.1a25.64,25.64,0,0,1-1.51-2.7h0c.06,1,.08,2,.08,3.33V99.5Z"/><path d="M205.38,96.79a1.86,1.86,0,0,0,2,2,3.81,3.81,0,0,0,1.61-.3l.18.76a4.7,4.7,0,0,1-1.93.36,2.7,2.7,0,0,1-2.85-2.93c0-1.75,1-3.13,2.72-3.13a2.46,2.46,0,0,1,2.4,2.73,4,4,0,0,1,0,.49Zm3.09-.76A1.5,1.5,0,0,0,207,94.32,1.75,1.75,0,0,0,205.39,96Z"/><path d="M210.14,98.89l2.63-3.42c.25-.31.49-.59.76-.9v0h-3.14V93.7h4.43v.66l-2.59,3.37c-.24.32-.48.61-.74.91v0h3.39v.84h-4.71Z"/><path d="M219.15,99.5l-.08-.73h0a2.16,2.16,0,0,1-1.77.86A1.65,1.65,0,0,1,215.48,98c0-1.4,1.25-2.17,3.49-2.16v-.12a1.2,1.2,0,0,0-1.32-1.34,2.89,2.89,0,0,0-1.51.43l-.24-.7a3.6,3.6,0,0,1,1.91-.52c1.77,0,2.21,1.21,2.21,2.37v2.17a8.14,8.14,0,0,0,.1,1.39Zm-.16-3c-1.15,0-2.46.18-2.46,1.31a.93.93,0,0,0,1,1,1.44,1.44,0,0,0,1.4-1,1.11,1.11,0,0,0,.06-.34Z"/><path d="M221.72,91h1.06V99.5h-1.06Z"/><path d="M229.57,91v7c0,.52,0,1.1,0,1.5h-.95l0-1h0a2.15,2.15,0,0,1-2,1.14c-1.4,0-2.48-1.19-2.48-3,0-1.93,1.19-3.12,2.6-3.12a1.94,1.94,0,0,1,1.75.89h0V91Zm-1.06,5.07a1.85,1.85,0,0,0,0-.44,1.55,1.55,0,0,0-1.52-1.22c-1.09,0-1.74,1-1.74,2.24s.58,2.15,1.72,2.15a1.59,1.59,0,0,0,1.55-1.26,1.82,1.82,0,0,0,0-.46Z"/><path d="M232.5,92.07a.65.65,0,0,1-1.31,0,.64.64,0,0,1,.66-.66A.63.63,0,0,1,232.5,92.07Zm-1.18,7.44V93.7h1.06v5.8Z"/><path d="M508,1V40H375V1H508m1-1H374V41H509V0Z"/><path d="M383.25,17.5,381.2,9.42h1.1l1,4.09c.24,1,.46,2,.6,2.79h0c.13-.8.38-1.76.66-2.81l1.08-4.08h1.09l1,4.1c.23,1,.44,1.92.56,2.77h0c.17-.89.39-1.79.65-2.79L390,9.42h1.07l-2.29,8.08h-1.09l-1-4.21a24.47,24.47,0,0,1-.53-2.64h0a25.17,25.17,0,0,1-.62,2.64l-1.15,4.21Z"/><path d="M392.24,14.79a1.86,1.86,0,0,0,2,2,3.82,3.82,0,0,0,1.61-.3l.18.76a4.7,4.7,0,0,1-1.93.36,2.7,2.7,0,0,1-2.85-2.93c0-1.75,1-3.13,2.72-3.13a2.46,2.46,0,0,1,2.4,2.73,4,4,0,0,1,0,.49Zm3.09-.76a1.5,1.5,0,0,0-1.46-1.71A1.75,1.75,0,0,0,392.25,14Z"/><path d="M397.61,17.5c0-.4,0-1,0-1.5V9h1v3.65h0a2.16,2.16,0,0,1,2-1.07c1.44,0,2.46,1.2,2.45,3,0,2.08-1.31,3.11-2.6,3.11a2.07,2.07,0,0,1-1.94-1.09h0l0,1Zm1.09-2.33a2,2,0,0,0,0,.38,1.63,1.63,0,0,0,1.58,1.24c1.1,0,1.76-.9,1.76-2.23,0-1.16-.6-2.16-1.73-2.16a1.68,1.68,0,0,0-1.61,1.3,2.11,2.11,0,0,0-.06.43Z"/><path d="M404.49,13.59c0-.74,0-1.34,0-1.9h.95l0,1h0a2.28,2.28,0,0,1,2.06-1.13c1.4,0,2.46,1.19,2.46,3,0,2.09-1.27,3.12-2.64,3.12a2,2,0,0,1-1.79-.91h0v3.15h-1Zm1,1.55a2.34,2.34,0,0,0,0,.43,1.63,1.63,0,0,0,1.58,1.24c1.12,0,1.76-.91,1.76-2.24,0-1.16-.61-2.16-1.73-2.16a1.68,1.68,0,0,0-1.59,1.31,1.71,1.71,0,0,0-.07.43Z"/><path d="M414.53,17.5l-.08-.73h0a2.16,2.16,0,0,1-1.78.86A1.65,1.65,0,0,1,410.86,16c0-1.4,1.25-2.17,3.49-2.16v-.12A1.2,1.2,0,0,0,413,12.35a2.9,2.9,0,0,0-1.51.43l-.24-.7a3.61,3.61,0,0,1,1.91-.52c1.77,0,2.21,1.21,2.21,2.37v2.17a8.14,8.14,0,0,0,.1,1.39Zm-.16-3c-1.15,0-2.46.18-2.46,1.31a.93.93,0,0,0,1,1,1.45,1.45,0,0,0,1.4-1,1.13,1.13,0,0,0,.06-.34Z"/><path d="M421.24,17.29a3.89,3.89,0,0,1-1.67.34,2.76,2.76,0,0,1-2.89-3,3,3,0,0,1,3.12-3.08,3.53,3.53,0,0,1,1.46.3l-.24.82a2.45,2.45,0,0,0-1.22-.28,2,2,0,0,0-2.05,2.19,2,2,0,0,0,2,2.17,3,3,0,0,0,1.3-.29Z"/><path d="M423.52,14.36h0c.14-.2.35-.46.52-.66l1.7-2H427l-2.24,2.39,2.55,3.42h-1.28l-2-2.78-.54.6V17.5h-1V9h1Z"/><path d="M386.91,23.39v7c0,.52,0,1.1,0,1.5H386l0-1h0A2.15,2.15,0,0,1,384,32c-1.4,0-2.48-1.19-2.48-3,0-1.93,1.19-3.12,2.6-3.12a1.94,1.94,0,0,1,1.75.89h0V23.39Zm-1.06,5.07a1.85,1.85,0,0,0,0-.44,1.55,1.55,0,0,0-1.52-1.22c-1.09,0-1.74,1-1.74,2.24s.58,2.15,1.72,2.15a1.59,1.59,0,0,0,1.55-1.26,1.83,1.83,0,0,0,0-.46Z"/><path d="M389.25,29.19a1.86,1.86,0,0,0,2,2,3.82,3.82,0,0,0,1.61-.3l.18.76a4.69,4.69,0,0,1-1.93.36,2.7,2.7,0,0,1-2.85-2.93c0-1.75,1-3.13,2.72-3.13a2.46,2.46,0,0,1,2.4,2.73,4.07,4.07,0,0,1,0,.49Zm3.09-.76a1.5,1.5,0,0,0-1.46-1.71,1.75,1.75,0,0,0-1.62,1.71Z"/><path d="M395.08,26.1l1.14,3.26a15.07,15.07,0,0,1,.47,1.49h0c.13-.48.3-1,.49-1.49l1.13-3.26h1.1l-2.28,5.8h-1L394,26.1Z"/><path d="M400.91,29.19a1.86,1.86,0,0,0,2,2,3.82,3.82,0,0,0,1.61-.3l.18.76a4.7,4.7,0,0,1-1.93.36,2.69,2.69,0,0,1-2.85-2.93c0-1.75,1-3.13,2.72-3.13A2.46,2.46,0,0,1,405,28.7a4,4,0,0,1,0,.49Zm3.09-.76a1.5,1.5,0,0,0-1.46-1.71,1.75,1.75,0,0,0-1.62,1.71Z"/><path d="M406.34,23.39h1.06V31.9h-1.06Z"/><path d="M414.42,29A2.84,2.84,0,0,1,411.53,32a2.76,2.76,0,0,1-2.78-3A2.83,2.83,0,0,1,411.63,26,2.75,2.75,0,0,1,414.42,29Zm-4.61.06c0,1.27.73,2.23,1.76,2.23s1.76-.95,1.76-2.25c0-1-.49-2.23-1.74-2.23S409.82,27.91,409.82,29Z"/><path d="M415.76,28c0-.74,0-1.34,0-1.9h.95l0,1h0A2.28,2.28,0,0,1,418.79,26c1.4,0,2.46,1.19,2.46,3C421.25,31,420,32,418.61,32a2,2,0,0,1-1.79-.91h0v3.15h-1Zm1,1.55a2.33,2.33,0,0,0,0,.43,1.63,1.63,0,0,0,1.58,1.24c1.12,0,1.76-.91,1.76-2.24,0-1.16-.61-2.16-1.73-2.16a1.68,1.68,0,0,0-1.59,1.31,1.71,1.71,0,0,0-.07.43Z"/><path d="M422.59,27.67c0-.6,0-1.09,0-1.57h.92l0,.94h0A2,2,0,0,1,425.37,26,1.72,1.72,0,0,1,427,27.13h0a2.39,2.39,0,0,1,.65-.76A2,2,0,0,1,429,26c.77,0,1.91.5,1.91,2.52V31.9h-1V28.62c0-1.12-.41-1.79-1.26-1.79a1.37,1.37,0,0,0-1.25,1,1.74,1.74,0,0,0-.08.53V31.9h-1V28.42c0-.92-.41-1.6-1.21-1.6a1.57,1.57,0,0,0-1.39,1.57v3.5h-1Z"/><path d="M433.18,29.19a1.86,1.86,0,0,0,2,2,3.82,3.82,0,0,0,1.61-.3l.18.76A4.7,4.7,0,0,1,435,32a2.69,2.69,0,0,1-2.85-2.93c0-1.75,1-3.13,2.72-3.13a2.46,2.46,0,0,1,2.4,2.73,4,4,0,0,1,0,.49Zm3.09-.76a1.5,1.5,0,0,0-1.46-1.71,1.75,1.75,0,0,0-1.62,1.71Z"/><path d="M438.61,27.67c0-.6,0-1.09,0-1.57h.94l.06,1h0A2.14,2.14,0,0,1,441.5,26c.8,0,2.05.48,2.05,2.47V31.9h-1.06V28.56c0-.94-.35-1.71-1.34-1.71a1.5,1.5,0,0,0-1.42,1.08,1.55,1.55,0,0,0-.07.49V31.9h-1.06Z"/><path d="M446.49,24.43V26.1H448v.8h-1.51V30c0,.72.2,1.13.79,1.13a2.36,2.36,0,0,0,.61-.07l0,.79A2.58,2.58,0,0,1,447,32a1.46,1.46,0,0,1-1.14-.44,2.15,2.15,0,0,1-.41-1.51V26.9h-.9v-.8h.9V24.71Z"/><path d="M451.59,30.82a2.77,2.77,0,0,0,1.39.42c.77,0,1.13-.38,1.13-.86s-.3-.78-1.08-1.07c-1-.37-1.54-.95-1.54-1.64a1.79,1.79,0,0,1,2-1.7,2.9,2.9,0,0,1,1.43.36l-.26.77a2.26,2.26,0,0,0-1.19-.34c-.62,0-1,.36-1,.79s.35.7,1.1,1c1,.38,1.52.89,1.52,1.75,0,1-.79,1.74-2.17,1.74a3.31,3.31,0,0,1-1.63-.4Z"/><path d="M457.07,29.19a1.86,1.86,0,0,0,2,2,3.81,3.81,0,0,0,1.61-.3l.18.76a4.7,4.7,0,0,1-1.93.36,2.7,2.7,0,0,1-2.86-2.93c0-1.75,1-3.13,2.72-3.13a2.46,2.46,0,0,1,2.4,2.73,4,4,0,0,1,0,.49Zm3.09-.76a1.5,1.5,0,0,0-1.46-1.71,1.75,1.75,0,0,0-1.62,1.71Z"/><path d="M462.5,27.91c0-.68,0-1.27,0-1.81h.92l0,1.14h0A1.74,1.74,0,0,1,465.06,26a1.14,1.14,0,0,1,.3,0v1a1.58,1.58,0,0,0-.36,0,1.48,1.48,0,0,0-1.42,1.36,3,3,0,0,0,0,.49V31.9h-1Z"/><path d="M467.13,26.1l1.14,3.26a15.07,15.07,0,0,1,.47,1.49h0c.13-.48.3-1,.49-1.49l1.13-3.26h1.1l-2.28,5.8h-1L466,26.1Z"/><path d="M473,29.19a1.86,1.86,0,0,0,2,2,3.82,3.82,0,0,0,1.61-.3l.18.76a4.7,4.7,0,0,1-1.93.36A2.69,2.69,0,0,1,472,29.1c0-1.75,1-3.13,2.72-3.13a2.46,2.46,0,0,1,2.4,2.73,4,4,0,0,1,0,.49Zm3.09-.76a1.5,1.5,0,0,0-1.46-1.71A1.75,1.75,0,0,0,473,28.44Z"/><path d="M478.38,27.91c0-.68,0-1.27,0-1.81h.92l0,1.14h0A1.74,1.74,0,0,1,481,26a1.14,1.14,0,0,1,.3,0v1a1.59,1.59,0,0,0-.36,0,1.48,1.48,0,0,0-1.42,1.36,2.92,2.92,0,0,0,0,.49V31.9h-1Z"/><path d="M508,51V90H375V51H508m1-1H374V91H509V50Z"/><path d="M383.24,65l-.84,2.54h-1.08l2.75-8.08h1.26l2.76,8.08H387L386.1,65Zm2.65-.82-.79-2.33c-.18-.53-.3-1-.42-1.48h0c-.12.48-.25,1-.41,1.46l-.79,2.34Z"/><path d="M389.27,59.52a12.11,12.11,0,0,1,2-.16,3.32,3.32,0,0,1,2.27.67,2.17,2.17,0,0,1,.71,1.69,2.38,2.38,0,0,1-.62,1.73,3.35,3.35,0,0,1-2.47.89,3.58,3.58,0,0,1-.84-.07V67.5h-1Zm1,3.9a3.49,3.49,0,0,0,.86.08c1.26,0,2-.61,2-1.73s-.75-1.58-1.91-1.58a4.38,4.38,0,0,0-1,.08Z"/><path d="M396.7,59.42V67.5h-1V59.42Z"/><path d="M400.89,66.42a2.77,2.77,0,0,0,1.39.42c.77,0,1.13-.38,1.13-.86s-.3-.78-1.08-1.07c-1-.37-1.54-.95-1.54-1.64a1.79,1.79,0,0,1,2-1.7,2.9,2.9,0,0,1,1.43.36l-.26.77a2.26,2.26,0,0,0-1.19-.34c-.62,0-1,.36-1,.79s.35.7,1.1,1c1,.38,1.52.89,1.52,1.75,0,1-.79,1.74-2.17,1.74a3.31,3.31,0,0,1-1.63-.4Z"/><path d="M406.37,64.79a1.86,1.86,0,0,0,2,2,3.81,3.81,0,0,0,1.61-.3l.18.76a4.7,4.7,0,0,1-1.93.36,2.7,2.7,0,0,1-2.86-2.93c0-1.75,1-3.13,2.72-3.13a2.46,2.46,0,0,1,2.4,2.73,4,4,0,0,1,0,.49Zm3.09-.76A1.5,1.5,0,0,0,408,62.32,1.75,1.75,0,0,0,406.38,64Z"/><path d="M411.8,63.51c0-.68,0-1.27,0-1.81h.92l0,1.14h0a1.74,1.74,0,0,1,1.61-1.27,1.14,1.14,0,0,1,.3,0v1a1.58,1.58,0,0,0-.36,0,1.48,1.48,0,0,0-1.42,1.36,3,3,0,0,0,0,.49V67.5h-1Z"/><path d="M416.43,61.7,417.57,65a15.15,15.15,0,0,1,.47,1.49h0c.13-.48.3-1,.49-1.49l1.13-3.26h1.1l-2.28,5.8h-1l-2.21-5.8Z"/><path d="M422.26,64.79a1.86,1.86,0,0,0,2,2,3.82,3.82,0,0,0,1.61-.3l.18.76a4.7,4.7,0,0,1-1.93.36,2.7,2.7,0,0,1-2.85-2.93c0-1.75,1-3.13,2.72-3.13a2.46,2.46,0,0,1,2.4,2.73,4,4,0,0,1,0,.49Zm3.09-.76a1.5,1.5,0,0,0-1.46-1.71A1.75,1.75,0,0,0,422.27,64Z"/><path d="M427.69,63.51c0-.68,0-1.27,0-1.81h.92l0,1.14h0a1.74,1.74,0,0,1,1.61-1.27,1.14,1.14,0,0,1,.3,0v1a1.59,1.59,0,0,0-.36,0,1.48,1.48,0,0,0-1.42,1.36,2.92,2.92,0,0,0,0,.49V67.5h-1Z"/><path d="M383.07,74.47a.65.65,0,0,1-1.31,0,.64.64,0,0,1,.66-.66A.63.63,0,0,1,383.07,74.47Zm-1.18,7.44V76.1h1.06v5.8Z"/><path d="M384.7,77.67c0-.6,0-1.09,0-1.57h.94l.06,1h0A2.13,2.13,0,0,1,387.59,76c.8,0,2.05.48,2.05,2.47V81.9h-1.06V78.56c0-.94-.35-1.71-1.34-1.71a1.55,1.55,0,0,0-1.49,1.57V81.9H384.7Z"/><path d="M393.91,73.39H395V81.9h-1.05Z"/><path d="M402,79A2.84,2.84,0,0,1,399.1,82a2.76,2.76,0,0,1-2.78-3A2.83,2.83,0,0,1,399.2,76,2.75,2.75,0,0,1,402,79Zm-4.61.06c0,1.27.73,2.23,1.76,2.23s1.76-.95,1.76-2.25c0-1-.49-2.23-1.74-2.23S397.38,77.91,397.38,79Z"/><path d="M407.46,81.69a3.88,3.88,0,0,1-1.67.34,2.76,2.76,0,0,1-2.89-3A3,3,0,0,1,406,76a3.52,3.52,0,0,1,1.46.3l-.24.82a2.45,2.45,0,0,0-1.22-.28,2.19,2.19,0,0,0,0,4.37,3,3,0,0,0,1.29-.29Z"/><path d="M411.92,81.9l-.08-.73h0A2.16,2.16,0,0,1,410,82a1.65,1.65,0,0,1-1.78-1.67c0-1.4,1.25-2.17,3.49-2.16v-.12a1.2,1.2,0,0,0-1.32-1.34,2.89,2.89,0,0,0-1.51.43l-.24-.7a3.6,3.6,0,0,1,1.91-.52c1.78,0,2.21,1.21,2.21,2.37v2.17a8.15,8.15,0,0,0,.1,1.39Zm-.16-3c-1.15,0-2.46.18-2.46,1.31a.94.94,0,0,0,1,1,1.44,1.44,0,0,0,1.4-1,1.1,1.1,0,0,0,.06-.34Z"/><path d="M414.49,73.39h1.06V81.9h-1.06Z"/><path d="M417.32,73.39h1.06V77h0a2,2,0,0,1,.76-.74,2.17,2.17,0,0,1,1.08-.3c.78,0,2,.48,2,2.48V81.9H421.2V78.57c0-.94-.35-1.73-1.34-1.73a1.51,1.51,0,0,0-1.41,1.06,1.27,1.27,0,0,0-.07.5v3.5h-1.06Z"/><path d="M429.23,79A2.84,2.84,0,0,1,426.34,82a2.76,2.76,0,0,1-2.78-3A2.83,2.83,0,0,1,426.44,76,2.75,2.75,0,0,1,429.23,79Zm-4.61.06c0,1.27.73,2.23,1.76,2.23s1.76-.95,1.76-2.25c0-1-.49-2.23-1.74-2.23S424.63,77.91,424.63,79Z"/><path d="M430.42,80.82a2.76,2.76,0,0,0,1.39.42c.77,0,1.13-.38,1.13-.86s-.3-.78-1.08-1.07c-1-.37-1.54-.95-1.54-1.64a1.79,1.79,0,0,1,2-1.7,2.9,2.9,0,0,1,1.43.36l-.26.77a2.27,2.27,0,0,0-1.19-.34c-.62,0-1,.36-1,.79s.35.7,1.1,1c1,.38,1.52.89,1.52,1.75,0,1-.79,1.74-2.17,1.74a3.31,3.31,0,0,1-1.63-.4Z"/><path d="M436.59,74.43V76.1h1.51v.8h-1.51V80c0,.72.2,1.13.79,1.13a2.37,2.37,0,0,0,.61-.07l0,.79a2.59,2.59,0,0,1-.94.14,1.46,1.46,0,0,1-1.14-.44,2.15,2.15,0,0,1-.41-1.51V76.9h-.9v-.8h.9V74.71Z"/><path d="M508,101v39H375V101H508m1-1H374v41H509V100Z"/><path d="M381.79,116.23a3.7,3.7,0,0,0,1.87.53c1.07,0,1.69-.56,1.69-1.38s-.43-1.19-1.52-1.61c-1.32-.47-2.13-1.15-2.13-2.29a2.33,2.33,0,0,1,2.61-2.19,3.67,3.67,0,0,1,1.79.4l-.29.85a3.22,3.22,0,0,0-1.54-.38c-1.1,0-1.52.66-1.52,1.21,0,.76.49,1.13,1.61,1.56,1.37.53,2.06,1.19,2.06,2.37s-.92,2.33-2.83,2.33a4.18,4.18,0,0,1-2.06-.52Z"/><path d="M389,110v1.67h1.51v.8H389v3.13c0,.72.2,1.13.79,1.13a2.36,2.36,0,0,0,.61-.07l0,.79a2.58,2.58,0,0,1-.94.14,1.46,1.46,0,0,1-1.14-.44,2.15,2.15,0,0,1-.41-1.51V112.5h-.9v-.8h.9v-1.39Z"/><path d="M395,117.5l-.08-.73h0a2.16,2.16,0,0,1-1.77.86,1.65,1.65,0,0,1-1.77-1.67c0-1.4,1.25-2.17,3.49-2.16v-.12a1.2,1.2,0,0,0-1.32-1.34,2.89,2.89,0,0,0-1.51.43l-.24-.7a3.6,3.6,0,0,1,1.91-.52c1.78,0,2.21,1.21,2.21,2.37v2.17a8.14,8.14,0,0,0,.1,1.39Zm-.16-3c-1.15,0-2.46.18-2.46,1.31a.93.93,0,0,0,1,1,1.44,1.44,0,0,0,1.4-1,1.1,1.1,0,0,0,.06-.34Z"/><path d="M398.75,110v1.67h1.51v.8h-1.51v3.13c0,.72.2,1.13.79,1.13a2.36,2.36,0,0,0,.61-.07l0,.79a2.59,2.59,0,0,1-.94.14,1.47,1.47,0,0,1-1.14-.44,2.16,2.16,0,0,1-.41-1.51V112.5h-.9v-.8h.9v-1.39Z"/><path d="M402.63,110.07a.65.65,0,0,1-1.31,0,.64.64,0,0,1,.66-.66A.63.63,0,0,1,402.63,110.07Zm-1.17,7.44v-5.8h1.06v5.8Z"/><path d="M408.4,117.29a3.88,3.88,0,0,1-1.67.34,2.76,2.76,0,0,1-2.89-3,3,3,0,0,1,3.12-3.08,3.53,3.53,0,0,1,1.46.3l-.24.82a2.45,2.45,0,0,0-1.22-.28,2.19,2.19,0,0,0,0,4.37,3,3,0,0,0,1.3-.29Z"/><path d="M412.22,109.42h4.35v.88h-3.31V113h3.06v.86h-3.06v3.66h-1Z"/><path d="M418.89,110.07a.65.65,0,0,1-1.31,0,.64.64,0,0,1,.66-.66A.63.63,0,0,1,418.89,110.07Zm-1.17,7.44v-5.8h1.06v5.8Z"/><path d="M420.52,109h1.06v8.52h-1.06Z"/><path d="M423.94,114.79a1.86,1.86,0,0,0,2,2,3.82,3.82,0,0,0,1.61-.3l.18.76a4.7,4.7,0,0,1-1.93.36,2.7,2.7,0,0,1-2.85-2.93c0-1.75,1-3.13,2.72-3.13a2.46,2.46,0,0,1,2.4,2.73,4.07,4.07,0,0,1,0,.49ZM427,114a1.5,1.5,0,0,0-1.46-1.71A1.75,1.75,0,0,0,424,114Z"/><path d="M429.22,116.42a2.77,2.77,0,0,0,1.39.42c.77,0,1.13-.38,1.13-.86s-.3-.78-1.08-1.07c-1-.37-1.54-.95-1.54-1.64a1.79,1.79,0,0,1,2-1.7,2.9,2.9,0,0,1,1.43.36l-.26.77a2.26,2.26,0,0,0-1.19-.34c-.62,0-1,.36-1,.79s.35.7,1.1,1c1,.38,1.52.89,1.52,1.75,0,1-.79,1.74-2.17,1.74a3.3,3.3,0,0,1-1.63-.4Z"/><path d="M383.07,124.47a.65.65,0,0,1-1.31,0,.64.64,0,0,1,.66-.66A.63.63,0,0,1,383.07,124.47Zm-1.18,7.44v-5.8h1.06v5.8Z"/><path d="M384.7,127.67c0-.6,0-1.09,0-1.57h.94l.06,1h0a2.13,2.13,0,0,1,1.92-1.09c.8,0,2.05.48,2.05,2.47v3.47h-1.06v-3.35c0-.94-.35-1.71-1.34-1.71a1.55,1.55,0,0,0-1.49,1.57v3.49H384.7Z"/><path d="M393.94,123.82h1V131h3.45v.88h-4.5Z"/><path d="M404.65,129a2.84,2.84,0,0,1-2.89,3.08,2.76,2.76,0,0,1-2.78-3,2.83,2.83,0,0,1,2.88-3.08A2.75,2.75,0,0,1,404.65,129ZM400,129c0,1.27.73,2.23,1.76,2.23s1.76-.95,1.76-2.25c0-1-.49-2.23-1.74-2.23S400,127.91,400,129Z"/><path d="M410.13,131.69a3.89,3.89,0,0,1-1.67.34,2.76,2.76,0,0,1-2.89-3,3,3,0,0,1,3.12-3.08,3.53,3.53,0,0,1,1.46.3l-.24.82a2.44,2.44,0,0,0-1.22-.28,2.19,2.19,0,0,0,0,4.37,3,3,0,0,0,1.29-.29Z"/><path d="M414.58,131.9l-.08-.73h0a2.16,2.16,0,0,1-1.77.86,1.65,1.65,0,0,1-1.78-1.67c0-1.4,1.25-2.17,3.49-2.16v-.12a1.2,1.2,0,0,0-1.32-1.34,2.89,2.89,0,0,0-1.51.43l-.24-.7a3.59,3.59,0,0,1,1.91-.52c1.78,0,2.21,1.21,2.21,2.37v2.17a8.13,8.13,0,0,0,.1,1.39Zm-.16-3c-1.15,0-2.46.18-2.46,1.31a.94.94,0,0,0,1,1,1.44,1.44,0,0,0,1.4-1,1.09,1.09,0,0,0,.06-.34Z"/><path d="M417.15,123.39h1.06v8.51h-1.06Z"/><path d="M422.56,123.82h4.35v.88h-3.31v2.69h3.06v.86h-3.06v3.66h-1Z"/><path d="M429.23,124.47a.65.65,0,0,1-1.31,0,.64.64,0,0,1,.66-.66A.63.63,0,0,1,429.23,124.47Zm-1.17,7.44v-5.8h1.06v5.8Z"/><path d="M430.87,123.39h1.06v8.51h-1.06Z"/><path d="M434.29,129.19a1.86,1.86,0,0,0,2,2,3.82,3.82,0,0,0,1.61-.3l.18.76a4.69,4.69,0,0,1-1.93.36,2.7,2.7,0,0,1-2.85-2.93c0-1.75,1-3.13,2.72-3.13a2.46,2.46,0,0,1,2.4,2.73,4.09,4.09,0,0,1,0,.49Zm3.09-.76a1.5,1.5,0,0,0-1.46-1.71,1.75,1.75,0,0,0-1.62,1.71Z"/><path d="M442.14,130.63a3.69,3.69,0,0,0,1.87.53c1.07,0,1.69-.56,1.69-1.38s-.43-1.19-1.52-1.61c-1.32-.47-2.13-1.15-2.13-2.29a2.33,2.33,0,0,1,2.62-2.2,3.67,3.67,0,0,1,1.79.4l-.29.85a3.22,3.22,0,0,0-1.54-.38c-1.1,0-1.52.66-1.52,1.21,0,.76.49,1.13,1.61,1.56,1.37.53,2.06,1.19,2.06,2.38s-.92,2.33-2.83,2.33a4.17,4.17,0,0,1-2.06-.52Z"/><path d="M448.46,126.1l1.27,3.43c.13.38.28.84.37,1.19h0c.11-.35.23-.79.37-1.21l1.15-3.41h1.12l-1.58,4.14c-.76,2-1.27,3-2,3.63a2.83,2.83,0,0,1-1.29.68l-.26-.89a2.79,2.79,0,0,0,.92-.52,3.2,3.2,0,0,0,.89-1.18.75.75,0,0,0,.08-.25,1,1,0,0,0-.07-.28l-2.15-5.35Z"/><path d="M453.51,130.82a2.77,2.77,0,0,0,1.39.42c.77,0,1.13-.38,1.13-.86s-.3-.78-1.08-1.07c-1-.37-1.54-.95-1.54-1.64a1.79,1.79,0,0,1,2-1.7,2.9,2.9,0,0,1,1.43.36l-.26.77a2.25,2.25,0,0,0-1.19-.34c-.62,0-1,.36-1,.79s.35.7,1.1,1c1,.38,1.52.89,1.52,1.75,0,1-.79,1.74-2.17,1.74a3.3,3.3,0,0,1-1.63-.4Z"/><path d="M459.68,124.43v1.67h1.51v.8h-1.51V130c0,.72.2,1.13.79,1.13a2.38,2.38,0,0,0,.61-.07l0,.79a2.58,2.58,0,0,1-.94.14,1.46,1.46,0,0,1-1.14-.44,2.14,2.14,0,0,1-.41-1.51V126.9h-.9v-.8h.9v-1.39Z"/><path d="M462.89,129.19a1.86,1.86,0,0,0,2,2,3.81,3.81,0,0,0,1.61-.3l.18.76a4.7,4.7,0,0,1-1.93.36,2.7,2.7,0,0,1-2.86-2.93c0-1.75,1-3.13,2.72-3.13a2.46,2.46,0,0,1,2.4,2.73,4,4,0,0,1,0,.49Zm3.09-.76a1.5,1.5,0,0,0-1.46-1.71,1.75,1.75,0,0,0-1.62,1.71Z"/><path d="M468.32,127.67c0-.6,0-1.09,0-1.57h.92l0,.94h0A2,2,0,0,1,471.1,126a1.71,1.71,0,0,1,1.64,1.16h0a2.38,2.38,0,0,1,.65-.75,2,2,0,0,1,1.28-.41c.77,0,1.91.5,1.91,2.52v3.42h-1v-3.29c0-1.12-.41-1.79-1.26-1.79a1.37,1.37,0,0,0-1.25,1,1.75,1.75,0,0,0-.08.53v3.59h-1v-3.48c0-.92-.41-1.59-1.21-1.59a1.44,1.44,0,0,0-1.31,1.05,1.49,1.49,0,0,0-.08.52v3.5h-1Z"/><path d="M508,151v39H375V151H508m1-1H374v41H509V150Z"/><path d="M383.24,165l-.84,2.54h-1.08l2.75-8.08h1.26l2.76,8.08H387L386.1,165Zm2.65-.82-.79-2.33c-.18-.53-.3-1-.42-1.48h0c-.12.48-.25,1-.41,1.46l-.79,2.34Z"/><path d="M389.27,159.52a12.1,12.1,0,0,1,2-.16,3.32,3.32,0,0,1,2.27.67,2.17,2.17,0,0,1,.71,1.69,2.38,2.38,0,0,1-.62,1.73,3.35,3.35,0,0,1-2.47.89,3.6,3.6,0,0,1-.84-.07v3.24h-1Zm1,3.9a3.52,3.52,0,0,0,.86.08c1.26,0,2-.61,2-1.73s-.75-1.58-1.91-1.58a4.32,4.32,0,0,0-1,.08Z"/><path d="M396.7,159.42v8.08h-1v-8.08Z"/><path d="M400.89,166.42a2.78,2.78,0,0,0,1.39.42c.77,0,1.13-.38,1.13-.86s-.3-.78-1.08-1.07c-1-.37-1.54-.95-1.54-1.64a1.79,1.79,0,0,1,2-1.7,2.91,2.91,0,0,1,1.43.36l-.26.77a2.26,2.26,0,0,0-1.19-.34c-.62,0-1,.36-1,.79s.35.7,1.1,1c1,.38,1.52.89,1.52,1.75,0,1-.79,1.74-2.17,1.74a3.3,3.3,0,0,1-1.63-.4Z"/><path d="M406.37,164.79a1.86,1.86,0,0,0,2,2,3.81,3.81,0,0,0,1.61-.3l.18.76a4.7,4.7,0,0,1-1.93.36,2.7,2.7,0,0,1-2.86-2.93c0-1.75,1-3.13,2.72-3.13a2.46,2.46,0,0,1,2.4,2.73,4,4,0,0,1,0,.49Zm3.09-.76a1.5,1.5,0,0,0-1.46-1.71,1.75,1.75,0,0,0-1.62,1.71Z"/><path d="M411.8,163.51c0-.68,0-1.27,0-1.81h.92l0,1.14h0a1.74,1.74,0,0,1,1.61-1.27,1.16,1.16,0,0,1,.3,0v1a1.61,1.61,0,0,0-.36,0,1.48,1.48,0,0,0-1.42,1.36,3,3,0,0,0,0,.49v3.09h-1Z"/><path d="M416.43,161.7l1.14,3.26a15.1,15.1,0,0,1,.47,1.49h0c.13-.48.3-1,.49-1.49l1.13-3.26h1.1l-2.28,5.8h-1l-2.21-5.8Z"/><path d="M422.26,164.79a1.86,1.86,0,0,0,2,2,3.82,3.82,0,0,0,1.61-.3l.18.76a4.71,4.71,0,0,1-1.93.36,2.7,2.7,0,0,1-2.85-2.93c0-1.75,1-3.13,2.72-3.13a2.46,2.46,0,0,1,2.4,2.73,4,4,0,0,1,0,.49Zm3.09-.76a1.5,1.5,0,0,0-1.46-1.71,1.75,1.75,0,0,0-1.62,1.71Z"/><path d="M427.69,163.51c0-.68,0-1.27,0-1.81h.92l0,1.14h0a1.74,1.74,0,0,1,1.61-1.27,1.16,1.16,0,0,1,.3,0v1a1.62,1.62,0,0,0-.36,0,1.48,1.48,0,0,0-1.42,1.36,2.91,2.91,0,0,0,0,.49v3.09h-1Z"/><path d="M383.07,174.47a.65.65,0,0,1-1.31,0,.64.64,0,0,1,.66-.66A.63.63,0,0,1,383.07,174.47Zm-1.18,7.44v-5.8h1.06v5.8Z"/><path d="M384.7,177.67c0-.6,0-1.09,0-1.57h.94l.06,1h0a2.13,2.13,0,0,1,1.92-1.09c.8,0,2.05.48,2.05,2.47v3.47h-1.06v-3.35c0-.94-.35-1.71-1.34-1.71a1.55,1.55,0,0,0-1.49,1.57v3.49H384.7Z"/><path d="M393.91,177.91c0-.68,0-1.27,0-1.81h.92l0,1.14h0a1.74,1.74,0,0,1,1.61-1.27,1.18,1.18,0,0,1,.3,0v1a1.56,1.56,0,0,0-.36,0,1.48,1.48,0,0,0-1.42,1.36,2.94,2.94,0,0,0,0,.49v3.09h-1Z"/><path d="M398.3,179.19a1.86,1.86,0,0,0,2,2,3.81,3.81,0,0,0,1.61-.3l.18.76a4.71,4.71,0,0,1-1.93.36,2.7,2.7,0,0,1-2.85-2.93c0-1.75,1-3.13,2.72-3.13a2.46,2.46,0,0,1,2.4,2.73,4,4,0,0,1,0,.49Zm3.09-.76a1.5,1.5,0,0,0-1.46-1.71,1.75,1.75,0,0,0-1.62,1.71Z"/><path d="M403.72,177.67c0-.6,0-1.09,0-1.57h.92l0,.94h0A2,2,0,0,1,406.5,176a1.72,1.72,0,0,1,1.64,1.16h0a2.39,2.39,0,0,1,.65-.75,2,2,0,0,1,1.28-.41c.77,0,1.91.5,1.91,2.52v3.42h-1v-3.29c0-1.12-.41-1.79-1.26-1.79a1.37,1.37,0,0,0-1.25,1,1.78,1.78,0,0,0-.08.53v3.59h-1v-3.48c0-.92-.41-1.59-1.21-1.59a1.44,1.44,0,0,0-1.31,1.05,1.47,1.47,0,0,0-.08.52v3.5h-1Z"/><path d="M419,179a2.84,2.84,0,0,1-2.89,3.08,2.76,2.76,0,0,1-2.78-3,2.83,2.83,0,0,1,2.88-3.08A2.75,2.75,0,0,1,419,179Zm-4.61.06c0,1.27.73,2.23,1.76,2.23s1.76-.95,1.76-2.25c0-1-.49-2.23-1.74-2.23S414.38,177.91,414.38,179Z"/><path d="M421.59,174.43v1.67h1.51v.8h-1.51V180c0,.72.2,1.13.79,1.13a2.39,2.39,0,0,0,.61-.07l0,.79a2.59,2.59,0,0,1-.94.14,1.46,1.46,0,0,1-1.14-.44,2.15,2.15,0,0,1-.41-1.51V176.9h-.9v-.8h.9v-1.39Z"/><path d="M424.81,179.19a1.86,1.86,0,0,0,2,2,3.81,3.81,0,0,0,1.61-.3l.18.76a4.71,4.71,0,0,1-1.93.36,2.7,2.7,0,0,1-2.85-2.93c0-1.75,1-3.13,2.72-3.13a2.46,2.46,0,0,1,2.4,2.73,4,4,0,0,1,0,.49Zm3.09-.76a1.5,1.5,0,0,0-1.46-1.71,1.75,1.75,0,0,0-1.62,1.71Z"/><path d="M432.63,180.82a2.77,2.77,0,0,0,1.39.42c.77,0,1.13-.38,1.13-.86s-.3-.78-1.08-1.07c-1-.37-1.54-.95-1.54-1.64a1.79,1.79,0,0,1,2-1.7,2.89,2.89,0,0,1,1.43.36l-.26.77a2.25,2.25,0,0,0-1.19-.34c-.62,0-1,.36-1,.79s.35.7,1.1,1c1,.38,1.52.89,1.52,1.75,0,1-.79,1.74-2.17,1.74a3.31,3.31,0,0,1-1.63-.4Z"/><path d="M438.11,179.19a1.86,1.86,0,0,0,2,2,3.82,3.82,0,0,0,1.61-.3l.18.76A4.69,4.69,0,0,1,440,182a2.7,2.7,0,0,1-2.85-2.93c0-1.75,1-3.13,2.72-3.13a2.46,2.46,0,0,1,2.4,2.73,4.09,4.09,0,0,1,0,.49Zm3.09-.76a1.5,1.5,0,0,0-1.46-1.71,1.75,1.75,0,0,0-1.62,1.71Z"/><path d="M443.54,177.91c0-.68,0-1.27,0-1.81h.92l0,1.14h0A1.74,1.74,0,0,1,446.1,176a1.16,1.16,0,0,1,.3,0v1a1.56,1.56,0,0,0-.36,0,1.48,1.48,0,0,0-1.42,1.36,2.93,2.93,0,0,0,0,.49v3.09h-1Z"/><path d="M448.17,176.1l1.14,3.26a15,15,0,0,1,.47,1.49h0c.13-.48.3-1,.49-1.49l1.13-3.26h1.1l-2.28,5.8h-1L447,176.1Z"/><path d="M454,179.19a1.86,1.86,0,0,0,2,2,3.81,3.81,0,0,0,1.61-.3l.18.76a4.71,4.71,0,0,1-1.93.36A2.7,2.7,0,0,1,453,179.1c0-1.75,1-3.13,2.72-3.13a2.46,2.46,0,0,1,2.4,2.73,4,4,0,0,1,0,.49Zm3.09-.76a1.5,1.5,0,0,0-1.46-1.71,1.75,1.75,0,0,0-1.62,1.71Z"/><path d="M459.42,177.91c0-.68,0-1.27,0-1.81h.92l0,1.14h0A1.74,1.74,0,0,1,462,176a1.16,1.16,0,0,1,.3,0v1a1.55,1.55,0,0,0-.36,0,1.48,1.48,0,0,0-1.42,1.36,3.05,3.05,0,0,0,0,.49v3.09h-1Z"/><line class="cls-1" x1="145" y1="96.5" x2="179.5" y2="96.5"/><line class="cls-1" x1="334.5" y1="96.5" x2="351.5" y2="96.5"/><line class="cls-1" x1="351.5" y1="20.5" x2="351.5" y2="170.5"/></g></g></svg>